<?xml version="1.0" standalone="no"?>
<!DOCTYPE svg PUBLIC "-//W3C//DTD SVG 20010904//EN"
 "http://www.w3.org/TR/2001/REC-SVG-20010904/DTD/svg10.dtd">
<svg version="1.0" xmlns="http://www.w3.org/2000/svg"
 width="225.000000pt" height="225.000000pt" viewBox="0 0 225.000000 225.000000"
 preserveAspectRatio="xMidYMid meet">

<g transform="translate(0.000000,225.000000) scale(0.100000,-0.100000)"
fill="#000000" stroke="none">
<path d="M953 2115 c-386 -70 -682 -337 -799 -720 -26 -84 -28 -102 -28 -270
0 -207 14 -277 84 -424 62 -129 121 -210 223 -307 158 -150 377 -260 425 -212
8 8 12 48 12 114 l0 101 -52 -8 c-30 -5 -78 -5 -111 1 -96 15 -147 57 -196
162 -13 28 -47 69 -78 97 -61 55 -66 81 -14 81 65 0 106 -28 172 -117 48 -64
100 -93 167 -93 57 0 112 17 112 34 0 7 11 34 25 61 27 54 25 65 -10 65 -13 0
-59 11 -103 25 -148 47 -238 137 -282 283 -19 62 -22 90 -18 190 4 123 16 161
74 238 20 27 22 37 14 65 -15 50 -12 128 6 188 l16 54 47 -6 c48 -6 124 -37
193 -78 36 -22 39 -22 110 -8 94 18 294 17 374 -3 54 -13 64 -13 80 0 41 31
163 83 210 88 l50 6 11 -38 c21 -70 25 -131 14 -184 -11 -49 -10 -53 20 -97
81 -117 92 -298 29 -466 -44 -118 -173 -217 -320 -246 -36 -7 -70 -14 -77 -16
-8 -3 -3 -20 15 -52 26 -47 27 -54 32 -248 l5 -200 37 -3 c27 -2 61 8 121 36
308 144 513 414 572 751 35 200 1 430 -93 616 -76 152 -245 334 -387 414 -208
119 -461 166 -682 126z"/>
</g>
</svg>
